<?xml version="1.0" standalone="no"?><!DOCTYPE svg PUBLIC "-//W3C//DTD SVG 1.1//EN" "http://www.w3.org/Graphics/SVG/1.1/DTD/svg11.dtd"><svg t="1685699537130" class="icon" viewBox="0 0 1024 1024" version="1.1" xmlns="http://www.w3.org/2000/svg" p-id="2592" xmlns:xlink="http://www.w3.org/1999/xlink" width="64" height="64"><path d="M773.888 70.64533333H242.64533333c-73.376 0-132.81066667 59.43466667-132.81066666 132.81066667v619.78666667c0 73.376 59.43466667 132.81066667 132.81066666 132.81066666h531.24266667c73.376 0 132.81066667-59.43466667 132.81066667-132.81066666V203.456c0-73.376-59.43466667-132.81066667-132.81066667-132.81066667z m44.26666667 752.58666667c0 24.45866667-19.808 44.26666667-44.26666667 44.26666667H242.64533333c-24.45866667 0-44.26666667-19.808-44.26666666-44.26666667V203.456c0-24.45866667 19.808-44.26666667 44.26666666-44.26666667h531.24266667c24.45866667 0 44.26666667 19.808 44.26666667 44.26666667v619.776z" fill="#2c2c2c" p-id="2593"></path><path d="M770.93333333 287.56266667c0 36.672-29.728 66.41066667-66.41066666 66.41066666H294.29333333c-36.672 0-66.41066667-29.728-66.41066666-66.41066666v-8.85333334c0-36.672 29.728-66.41066667 66.41066666-66.41066666h410.24c36.672 0 66.41066667 29.728 66.41066667 66.41066666v8.85333334zM393.16266667 451.37066667c0 24.448-19.81866667 44.26666667-44.26666667 44.26666666h-5.89866667c-24.448 0-44.26666667-19.81866667-44.26666666-44.26666666v-5.89866667c0-24.448 19.81866667-44.26666667 44.26666666-44.26666667h5.89866667c24.448 0 44.26666667 19.81866667 44.26666667 44.26666667v5.89866667zM558.432 451.37066667c0 24.448-19.81866667 44.26666667-44.26666667 44.26666666h-5.89866666c-24.448 0-44.26666667-19.81866667-44.26666667-44.26666666v-5.89866667c0-24.448 19.81866667-44.26666667 44.26666667-44.26666667h5.89866666c24.448 0 44.26666667 19.81866667 44.26666667 44.26666667v5.89866667zM723.712 451.37066667c0 24.448-19.81866667 44.26666667-44.26666667 44.26666666h-5.89866666c-24.448 0-44.26666667-19.81866667-44.26666667-44.26666666v-5.89866667c0-24.448 19.81866667-44.26666667 44.26666667-44.26666667h5.89866666c24.448 0 44.26666667 19.81866667 44.26666667 44.26666667v5.89866667zM393.16266667 593.03466667c0 24.448-19.81866667 44.26666667-44.26666667 44.26666666h-5.89866667c-24.448 0-44.26666667-19.81866667-44.26666666-44.26666666v-5.89866667c0-24.448 19.81866667-44.26666667 44.26666666-44.26666667h5.89866667c24.448 0 44.26666667 19.81866667 44.26666667 44.26666667v5.89866667zM558.432 593.03466667c0 24.448-19.81866667 44.26666667-44.26666667 44.26666666h-5.89866666c-24.448 0-44.26666667-19.81866667-44.26666667-44.26666666v-5.89866667c0-24.448 19.81866667-44.26666667 44.26666667-44.26666667h5.89866666c24.448 0 44.26666667 19.81866667 44.26666667 44.26666667v5.89866667zM723.712 593.03466667c0 24.448-19.81866667 44.26666667-44.26666667 44.26666666h-5.89866666c-24.448 0-44.26666667-19.81866667-44.26666667-44.26666666v-5.89866667c0-24.448 19.81866667-44.26666667 44.26666667-44.26666667h5.89866666c24.448 0 44.26666667 19.81866667 44.26666667 44.26666667v5.89866667zM393.16266667 734.69866667c0 24.448-19.81866667 44.26666667-44.26666667 44.26666666h-5.89866667c-24.448 0-44.26666667-19.81866667-44.26666666-44.26666666v-5.89866667c0-24.448 19.81866667-44.26666667 44.26666666-44.26666667h5.89866667c24.448 0 44.26666667 19.81866667 44.26666667 44.26666667v5.89866667zM558.432 734.69866667c0 24.448-19.81866667 44.26666667-44.26666667 44.26666666h-5.89866666c-24.448 0-44.26666667-19.81866667-44.26666667-44.26666666v-5.89866667c0-24.448 19.81866667-44.26666667 44.26666667-44.26666667h5.89866666c24.448 0 44.26666667 19.81866667 44.26666667 44.26666667v5.89866667zM723.712 734.69866667c0 24.448-19.81866667 44.26666667-44.26666667 44.26666666h-5.89866666c-24.448 0-44.26666667-19.81866667-44.26666667-44.26666666v-5.89866667c0-24.448 19.81866667-44.26666667 44.26666667-44.26666667h5.89866666c24.448 0 44.26666667 19.81866667 44.26666667 44.26666667v5.89866667z" fill="#2c2c2c" p-id="2594"></path></svg>