<?xml version="1.0" standalone="no"?><!DOCTYPE svg PUBLIC "-//W3C//DTD SVG 1.1//EN" "http://www.w3.org/Graphics/SVG/1.1/DTD/svg11.dtd"><svg t="1673588696754" class="icon" viewBox="0 0 1024 1024" version="1.1" xmlns="http://www.w3.org/2000/svg" p-id="1589" xmlns:xlink="http://www.w3.org/1999/xlink" width="128" height="128"><path d="M942.08 873.78V601.497H804.198V477.286H577.485v122.88l-39.27 5.428c-0.769 7.424-1.639 12.288-1.69 17.152 0 76.8 0 153.292-0.615 229.888 0 7.68-7.782 15.36-11.878 22.937-4.198-7.629-11.213-15.001-11.93-22.989-1.74-19.712-0.563-39.628-0.563-58.675l-33.74-9.011V545.894h-56.986v239.463c-29.338 9.779-39.987 0.87-39.424-28.775 1.28-69.888 0.41-139.878 0.41-211.2h-55.655V790.17H92.16v84.07l-59.494 5.12v68.762H991.13v-69.376zM595.61 667.033h43.98v46.438h-43.98z m44.083 138.598h-44.237v-43.827h44.186z m82.995-2.867c-46.08 11.469-48.947 8.909-43.264-40.96h43.264z m0.87-89.498h-45.26v-46.08h45.26z m81.408 93.491h-49.51v-44.492h49.51z m0-93.747H755.2v-46.08h49.818zM257.331 287.283c5.479-3.174 15.053-6.605 19.047-4.045 42.444 26.83 78.387 12.493 111.667-17.612 51.2 47.001 100.966 37.53 148.89 0 62.72 43.878 119.347 42.086 160.87-3.84 39.731-43.879 40.294-108.237 1.331-150.528-46.08-49.767-100.864-46.695-179.2 9.984-65.178-31.95-98.406-24.167-152.678 38.041-42.496-21.657-78.388-17.1-109.005 19.456-4.813 5.683-17.05 7.527-25.6 7.168-27.853-1.177-53.453 6.4-58.112 35.123a86.528 86.528 0 0 0 14.592 60.57c16.896 21.965 43.673 19.968 68.198 5.683z" fill="#ffffff" p-id="1590"></path><path d="M241.92 333.26h-75.06c-10.7 120.68-21.247 239.72-31.897 359.476h139.315C263.168 569.6 252.57 451.43 241.92 333.261z m55.04 382.926H113.664v49.817H296.96z" fill="#ffffff" p-id="1591"></path></svg>