<?xml version="1.0" standalone="no"?><!DOCTYPE svg PUBLIC "-//W3C//DTD SVG 1.1//EN" "http://www.w3.org/Graphics/SVG/1.1/DTD/svg11.dtd"><svg t="1696648549006" class="icon" viewBox="0 0 1024 1024" version="1.1" xmlns="http://www.w3.org/2000/svg" p-id="5604" width="128" height="128" xmlns:xlink="http://www.w3.org/1999/xlink"><path d="M951.43 760.154c-0.072 107.783-87.492 195.179-195.203 195.145-107.687-0.01-195.231-87.481-195.159-195.184 0.102-107.89 87.086-195.261 195.294-195.184 108.082 0.117 195.145 87.565 195.068 195.223zM789.112 630.067h-65.868c3.116 61.479 6.275 122.774 9.392 184.138h47.076c3.135-61.397 6.251-122.687 9.4-184.138z m-34.038 271.866c19.554-0.038 32.996-13.288 33.107-32.62 0.111-19.501-13.424-33.224-32.731-33.186-19.24 0.029-33.142 13.988-33.089 33.238 0.035 19.188 13.535 32.621 32.713 32.568zM265.987 229.574c23.138 0 41.886-18.136 41.886-40.495v-80.973c0-22.371-18.753-40.497-41.886-40.497-23.138 0-41.877 18.126-41.877 40.497v80.978c-0.005 22.363 18.739 40.49 41.877 40.49zM684.846 229.574c23.133 0 41.881-18.136 41.881-40.495v-80.973c0-22.371-18.763-40.497-41.881-40.497-23.139 0-41.892 18.126-41.892 40.497v80.978c0 22.363 18.763 40.49 41.892 40.49zM475.414 229.574c23.138 0 41.881-18.136 41.881-40.495v-80.973c0-22.371-18.753-40.497-41.881-40.497s-41.881 18.126-41.881 40.497v80.978c-0.001 22.363 18.743 40.49 41.881 40.49z" fill="#409eff" p-id="5605"></path><path d="M529.271 796.431h-312.15c-19.279 0-34.902-15.121-34.902-33.744 0-18.633 15.623-33.735 34.902-33.735h311.394c4.659-34.511 16.969-66.587 35.172-94.48H224.105c-23.143 0-41.886-18.126-41.886-40.482 0-22.371 18.749-40.497 41.886-40.497h431.023c30.537-14.977 64.846-23.428 101.151-23.428 45.692 0 88.234 13.39 124.024 36.373V189.083c0-22.361-18.744-40.492-41.877-40.492h-69.813v40.492c0 44.728-37.507 80.982-83.768 80.982-46.267 0-83.778-36.255-83.778-80.982v-40.497h-41.881v40.492c0 44.728-37.502 80.982-83.773 80.982-46.256 0-83.768-36.255-83.768-80.982v-40.492h-41.886v40.492c0 44.728-37.502 80.982-83.768 80.982-46.256 0-83.768-36.255-83.768-80.982v-40.492H112.4c-23.138 0-41.882 18.126-41.882 40.492v701.828c0 22.352 18.753 40.479 41.882 40.479h490.703c-38.5-34.43-65.332-81.637-73.832-134.954zM224.105 378.03h502.631c23.138 0 41.882 18.136 41.882 40.498 0 22.354-18.749 40.485-41.882 40.485H224.105c-23.143 0-41.886-18.131-41.886-40.485 0-22.361 18.748-40.498 41.886-40.498z" fill="#409eff" p-id="5606"></path></svg>